<svg width="60" height="60" viewBox="0 0 60 60" fill="none" xmlns="http://www.w3.org/2000/svg">
<path fill-rule="evenodd" clip-rule="evenodd" d="M35 45C35 47.7614 32.7614 50 30 50C27.2386 50 25 47.7614 25 45H35ZM30 5C20.325 5 12.5 13.95 12.5 25V30.725L7.5 45H20C20 50.5229 24.4772 55 30 55C35.5228 55 40 50.5229 40 45H52.5L47.5 30.725V25.725C47.5 16.25 41.975 7.57496 33.875 5.72504C32.6176 5.32703 31.3163 5.08356 30 5ZM14.55 40L17.225 32.5L17.5 31.575V25C17.5 16.725 23.1 10 30 10C30.9016 9.99848 31.8 10.1076 32.675 10.325C38.275 11.7 42.5 18.275 42.5 25.6V31.575L42.775 32.375L45.45 40H14.55Z" fill="#F44671"/>
</svg>
