<svg width="37" height="37" viewBox="0 0 37 37" fill="none" xmlns="http://www.w3.org/2000/svg">
<path d="M16.1875 20.0415H17.3437C17.6504 20.0415 17.9445 20.1633 18.1613 20.3802C18.3782 20.597 18.5 20.8911 18.5 21.1978V29.2915M16.1875 29.2915H20.8125" stroke="#505050" stroke-width="1.5" stroke-linecap="round" stroke-linejoin="round"/>
<path d="M1.15625 15.0312H35.8437M10.4062 9.25V1.15625M26.5937 9.25V1.15625M3.46875 5.78125H33.5312C33.5312 5.78125 35.8437 5.78125 35.8437 8.09375V33.5312C35.8437 33.5312 35.8437 35.8437 33.5312 35.8437H3.46875C3.46875 35.8437 1.15625 35.8437 1.15625 33.5312V8.09375C1.15625 8.09375 1.15625 5.78125 3.46875 5.78125Z" stroke="#505050" stroke-width="1.5" stroke-linecap="round" stroke-linejoin="round"/>
</svg>
